<?xml version="1.0" encoding="utf-8"?>
<!-- Generator: Adobe Illustrator 24.1.0, SVG Export Plug-In . SVG Version: 6.00 Build 0)  -->
<svg version="1.1" id="Layer_1" xmlns="http://www.w3.org/2000/svg" xmlns:xlink="http://www.w3.org/1999/xlink" x="0px" y="0px"
	 viewBox="0 0 310 72" style="enable-background:new 0 0 310 72;" xml:space="preserve">
<style type="text/css">
	.st0{fill-rule:evenodd;clip-rule:evenodd;fill:#125191;}
	.st1{fill:#125191;}
</style>
<path class="st0" d="M39,25.9c0.8,0,1.5,0.3,2.1,0.9c0.1,0.1,0.3,0.2,0.5,0.2c0.4,0,0.8-0.3,0.8-0.8c0-0.2-0.1-0.4-0.2-0.5
	c-0.8-0.8-2-1.3-3.2-1.3c-2.7,0-4.8,2.2-4.8,4.9s2.2,4.9,4.8,4.9c1.3,0,2.5-0.4,3.4-1.3c0.3-0.3,0.5-0.7,0.5-1.1v-2
	c0-0.4-0.3-0.8-0.7-0.8c0,0-0.1,0-0.1,0h-2.9c-0.4,0-0.8,0.2-0.8,0.6c0,0.4,0.2,0.8,0.6,0.8c0.1,0,0.1,0,0.2,0h2.2v1.5
	c-0.6,0.5-1.4,0.8-2.2,0.8c-1.8,0-3.2-1.4-3.2-3.2c0-0.1,0-0.1,0-0.2c-0.1-1.8,1.3-3.3,3-3.4C38.9,25.9,38.9,25.9,39,25.9z M50,26.1
	c0.4,0,0.8-0.2,0.8-0.6c0-0.4-0.2-0.8-0.6-0.8c-0.1,0-0.1,0-0.2,0h-4.9c-0.4,0-0.8,0.3-0.9,0.7c0,0.1,0,0.1,0,0.2v7.6
	c0,0.4,0.3,0.8,0.7,0.9c0.1,0,0.1,0,0.2,0H50c0.4,0,0.8-0.2,0.8-0.6s-0.2-0.8-0.6-0.8c-0.1,0-0.1,0-0.2,0h-4.1v-2.6h4
	c0.4,0,0.7-0.3,0.7-0.7c0-0.4-0.3-0.7-0.7-0.7h-4v-2.4H50z M52.8,34.1c0.4,0,0.8-0.4,0.8-0.8v-6.1l4.7,6.5c0.2,0.3,0.5,0.4,0.8,0.4
	c0.6,0,1-0.4,1-1v-7.7c0-0.5-0.4-0.8-0.8-0.8s-0.8,0.4-0.8,0.8c0,0,0,0,0,0v5.9L53.9,25c-0.2-0.3-0.5-0.4-0.9-0.5
	c-0.6,0-1.1,0.5-1.1,1.1v7.6C52,33.7,52.4,34.1,52.8,34.1L52.8,34.1z M64.8,34.1c0.4,0,0.8-0.4,0.8-0.8v-7.2h2.2
	c0.4,0,0.8-0.2,0.8-0.6c0-0.4-0.2-0.8-0.6-0.8c-0.1,0-0.1,0-0.2,0h-6c-0.4,0-0.8,0.2-0.8,0.6c0,0.4,0.2,0.8,0.6,0.8
	c0.1,0,0.1,0,0.2,0H64v7.2C64,33.7,64.3,34,64.8,34.1L64.8,34.1z M70.3,24.5c-0.5,0-0.8,0.4-0.8,0.8v0v7.8c0,0.4,0.3,0.8,0.7,0.9
	c0.1,0,0.1,0,0.2,0h4.2c0.4,0,0.8-0.2,0.8-0.6c0-0.4-0.2-0.8-0.6-0.8c-0.1,0-0.1,0-0.2,0h-3.5v-7.2C71.1,24.9,70.8,24.5,70.3,24.5
	L70.3,24.5z M82.2,26.1c0.4,0,0.8-0.2,0.8-0.6c0-0.4-0.2-0.8-0.6-0.8c-0.1,0-0.1,0-0.2,0h-4.9c-0.4-0.1-0.8,0.3-0.9,0.7
	c0,0.1,0,0.1,0,0.2v7.6c-0.1,0.4,0.3,0.8,0.7,0.9c0.1,0,0.1,0,0.2,0h4.9c0.4,0,0.8-0.2,0.8-0.6c0-0.4-0.2-0.8-0.6-0.8
	c-0.1,0-0.1,0-0.2,0H78v-2.6h4c0.4,0,0.7-0.3,0.7-0.7c0-0.4-0.3-0.7-0.7-0.7c0,0,0,0,0,0h-4v-2.4H82.2z M38,37.9h-2.6
	c-0.4,0-0.8,0.3-0.9,0.7c0,0.1,0,0.1,0,0.2v7.6c0,0.4,0.3,0.8,0.7,0.9c0.1,0,0.1,0,0.2,0H38c2.6,0.1,4.8-1.9,4.9-4.5
	c0.1-2.6-1.9-4.8-4.5-4.9C38.3,37.9,38.1,37.9,38,37.9z M38,45.8h-1.8v-6.5H38c1.7-0.1,3.1,1.1,3.2,2.8c0,0.2,0,0.3,0,0.5
	c0.1,1.7-1.2,3.1-2.9,3.2C38.2,45.8,38.1,45.8,38,45.8z M44.1,46.4c0,0.4,0.3,0.8,0.7,0.9c0.1,0,0.1,0,0.2,0h4.9
	c0.4,0,0.8-0.2,0.8-0.6s-0.2-0.8-0.6-0.8c-0.1,0-0.1,0-0.2,0h-4.1v-2.6h4c0.4,0,0.7-0.3,0.7-0.7c0-0.4-0.3-0.7-0.7-0.7c0,0,0,0,0,0
	h-4v-2.4h4.1c0.4,0,0.8-0.2,0.8-0.6s-0.2-0.8-0.6-0.8c-0.1,0-0.1,0-0.2,0H45c-0.4,0-0.8,0.3-0.9,0.7c0,0.1,0,0.1,0,0.2L44.1,46.4z
	 M51.8,46.5c0.1,0.5,0.5,0.8,0.9,0.7c0.4,0,0.7-0.3,0.7-0.7v-6.1l4.6,6.5c0.2,0.3,0.5,0.4,0.8,0.4c0.6,0,1-0.4,1-1v-7.7
	c0-0.5-0.4-0.8-0.8-0.8s-0.8,0.4-0.8,0.8c0,0,0,0,0,0v5.9l-4.5-6.3c-0.2-0.3-0.5-0.5-0.9-0.5c-0.6,0-1.1,0.5-1.1,1.1v0L51.8,46.5z
	 M61.7,39.3h2.2v7.2c0,0.5,0.4,0.8,0.8,0.8c0.4,0,0.8-0.4,0.8-0.8v-7.2h2.2c0.4,0,0.8-0.2,0.8-0.6c0-0.4-0.2-0.8-0.6-0.8
	c-0.1,0-0.1,0-0.2,0h-6c-0.4,0-0.8,0.2-0.8,0.6c0,0.4,0.2,0.8,0.6,0.8C61.6,39.3,61.7,39.3,61.7,39.3L61.7,39.3z M67.7,46.5
	c0,0.5,0.4,0.8,0.8,0.8c0.3,0,0.6-0.2,0.8-0.5l0.5-1.3h4.5l0.5,1.3c0.1,0.3,0.4,0.5,0.8,0.5c0.5,0,0.8-0.4,0.8-0.8
	c0-0.1,0-0.2-0.1-0.3l-2.9-7.5c-0.3-0.7-1.1-1.1-1.9-0.8c-0.4,0.1-0.7,0.4-0.8,0.8l-2.9,7.5C67.7,46.3,67.7,46.4,67.7,46.5z
	 M72,39.2l1.7,4.8h-3.4L72,39.2z M78.3,37.8c-0.5,0-0.8,0.4-0.8,0.8v7.8c-0.1,0.4,0.3,0.8,0.7,0.9c0.1,0,0.1,0,0.2,0h4.2
	c0.4,0,0.8-0.2,0.8-0.6c0-0.4-0.2-0.8-0.6-0.8c-0.1,0-0.1,0-0.2,0h-3.5v-7.2C79.1,38.2,78.8,37.8,78.3,37.8L78.3,37.8z M87.9,58.6
	c-0.4-0.1-0.7-0.2-0.7-0.4s0.2-0.4,0.6-0.4c0.2,0,0.5,0.1,0.7,0.2c0,0,0.1,0,0.1,0c0.1,0,0.2-0.1,0.2-0.2c0-0.1,0-0.2-0.1-0.2
	c-0.3-0.2-0.6-0.3-0.9-0.3c-0.7,0-1.1,0.4-1.1,0.9s0.6,0.8,1.1,0.9s0.7,0.2,0.7,0.4S88.3,60,87.8,60c-0.3,0-0.5-0.1-0.8-0.3
	c0,0-0.1,0-0.2,0c-0.1,0-0.2,0.1-0.2,0.2c0,0.1,0,0.2,0.1,0.2c0.3,0.2,0.6,0.3,1,0.3c0.8,0,1.2-0.4,1.2-0.9
	C89,58.9,88.4,58.8,87.9,58.6L87.9,58.6z M92.1,57.4c-0.2,0-0.3,0.1-0.4,0.3L91,59.5l-0.7-1.8c-0.1-0.2-0.2-0.3-0.4-0.3
	c-0.2,0-0.4,0.2-0.4,0.4l0,0v2.3c0,0.1,0.1,0.3,0.2,0.3c0,0,0,0,0,0c0.1,0,0.3-0.1,0.3-0.3v-2l0.9,2.2c0,0.1,0.1,0.1,0.1,0.1
	c0.1,0,0.1,0,0.1-0.1l0.9-2.2v2c0,0.1,0.1,0.3,0.3,0.3c0.1,0,0.3-0.1,0.3-0.3c0,0,0,0,0,0v-2.3C92.5,57.6,92.4,57.4,92.1,57.4
	L92.1,57.4z M116.7,29.8c-0.4-1.3-1.8-2.5-3-3.5l-0.2-0.1l-0.9-0.7c-2.8-2.5-5.9-4.8-9.2-6.7c-2.4-1.1-5-1.9-7.7-2.4L94.1,16
	l-2.2-0.6c-1.4-0.4-2.9-0.7-4.3-1c2-0.6,3.8-2.1,4.7-4c1.1-2.3,0.6-4.8-1.2-5.9C90.3,4.2,89.4,4,88.6,4l0,0c-1.7,0.1-3.4,0.4-5.1,1
	c-0.5,0.2-1,0.3-1.4,0.4c-2.6,0.7-5.2,1.2-7.9,1.5C73.4,7,72.6,7,71.8,7c-2.2,0-4.3-0.2-6.4-0.6c-2.1-0.3-4.2-0.5-6.4-0.6
	c-1.1,0-2.1,0.1-3.2,0.2c-2.3,0.4-4.6,1-6.7,1.9l-0.5,0.2c-2.1,0.8-4.2,1.6-6.3,2.5c-4.1,1.8-8,4-11.6,6.7l-1.3,0.9
	c-0.3,0.2-0.4,0.7-0.1,1c0.1,0.2,0.3,0.3,0.6,0.3c0.3-0.1,0.6-0.2,0.8-0.5l0.8-0.6c3.5-2.6,7.3-4.8,11.3-6.5c2-0.8,4-1.6,6.2-2.5
	c2.2-1,4.6-1.7,7-2.1c1-0.1,2-0.2,3-0.2c4.3,0,8.2,1.2,12.8,1.2c0.8,0,1.6,0,2.5-0.1c2.7-0.3,5.4-0.8,8-1.5c1.6-0.4,4.2-1.5,6.2-1.5
	c0.6,0,1.2,0.1,1.8,0.4c1.2,0.7,1.5,2.5,0.7,4.1c-2.2,4.7-9.7,4.4-17.3,4.8c-3.6,0.2-9.6,0.2-12.2,1.4c-1.1,0.5-1.1,1.4,0.1,1.4
	c0.3,0,0.6,0,0.8-0.1c5.2-1.2,11.2-1.2,16.8-1.4c0.9,0,4.2-0.3,4.7-0.3h0.1c3,0,6.6,1.1,9.8,1.9s6.6,1.3,9,2.6
	c3.4,1.8,6.8,4.7,9.8,7.2c1,0.9,2.4,2,2.7,2.9c0.5,1.8-0.4,3.5-2.2,3.6h-0.2c-1.6,0-2.7-1-3.8-1.7s-2.3-1.5-3.3-2.2
	c-2.1-1.5-4.4-3.6-6.8-4.2c-1.5-0.3-3-0.6-4.6-0.7c-0.9-0.1-1.8-0.2-2.7-0.3c-0.9,0-1.6,0.1-1.7,0.7c-0.1,1.3,3.3,1.1,4.2,1.2
	c1.4,0.1,2.8,0.3,4.2,0.5c1.5,0.6,2.9,1.4,4.1,2.4c2.4,1.7,5.1,3.3,7.7,5.2c1.1,0.8,2.8,2.2,2.7,3.5c-0.2,1.3-1.3,2.3-2.7,2.3h-0.5
	c-2.2,0-3.8-1.5-5-2.2c-3.8-2.4-7.4-5.2-13.7-5.4h-1c-1.3,0-1.9,0.2-1.9,0.9s0.6,0.6,1.3,0.6h1.2h0.2c4.1,0.1,7.6,1.9,10.4,3.6
	c1.6,0.9,5.8,3.4,3.5,5.9c-0.8,0.6-1.7,0.8-2.7,0.8c-0.2,0-0.5,0-0.7,0c-2.7-0.2-4.7-1.8-7.2-2.8c-1.2-0.5-2.5-0.9-3.7-1.3
	c-0.9-0.3-1.9-0.5-2.9-0.6c-0.6,0-0.9,0.2-0.9,0.7c0.1,0.7,1.5,0.8,3,1.2s5.8,1.8,6.8,2.9c0.6,0.6,0.8,1.6,0.6,2.4
	c-0.3,0.8-1.2,1.1-2.3,1.1c-1.2,0-2.3-0.2-3.4-0.6L87,46.4c-0.1,0-0.2-0.1-0.3-0.1c-0.4,0-0.7,0.3-0.7,0.7c0,0.3,0.2,0.5,0.5,0.6
	l4.4,1.4c1.2,0.4,2.5,0.6,3.8,0.7c2.5,0,3.3-1.3,3.6-2c0.3-0.8,0.3-1.6,0-2.3c1,0.4,2,0.6,3,0.7c0.3,0,0.6,0,0.8,0
	c1.3,0.1,2.7-0.4,3.7-1.2c0.8-0.8,1.2-1.9,1-3c0-0.2-0.1-0.4-0.2-0.7c1,0.5,2.1,0.8,3.2,0.8c0.2,0,0.5,0,0.7,0
	c2-0.2,3.6-1.6,3.9-3.6c0-1.2-0.5-2.4-1.5-3.2h0.2c1.2,0,2.3-0.6,3-1.6C116.9,32.5,117.1,31.1,116.7,29.8z M88.4,53.1
	c-0.3,0.1-0.6,0.2-0.8,0.5l-0.8,0.6c-3.5,2.6-7.3,4.8-11.3,6.5c-2,0.8-4,1.6-6.2,2.5c-2.2,1-4.6,1.7-7,2.1c-1,0.1-2,0.2-3,0.2
	c-4.3,0-8.2-1.2-12.8-1.2c-0.8,0-1.6,0-2.5,0.1c-2.7,0.3-5.4,0.8-8.1,1.5c-1.6,0.4-4.2,1.5-6.2,1.5c-0.6,0-1.2-0.1-1.7-0.4
	c-1.2-0.7-1.5-2.5-0.7-4.1c2.2-4.7,9.7-4.4,17.3-4.8c3.6-0.2,9.6-0.2,12.2-1.4c1.1-0.5,1.1-1.4-0.1-1.4c-0.3,0-0.6,0-0.8,0.1
	c-5.2,1.2-11.2,1.2-16.8,1.4c-0.9,0-4.2,0.3-4.7,0.3h-0.1c-3,0-6.6-1.2-9.8-1.9s-6.5-1.3-9-2.6C12,50.9,8.6,48,5.6,45.5
	c-1-0.9-2.4-2-2.7-2.9c-0.5-1.8,0.4-3.5,2.2-3.6h0.2c1.6,0,2.7,1,3.8,1.7c1,0.7,2.3,1.5,3.3,2.2c2.1,1.5,4.4,3.6,6.8,4.2
	c1.5,0.3,3,0.6,4.6,0.7c0.9,0.1,1.8,0.2,2.7,0.3c0.9,0,1.6-0.2,1.7-0.7c0.1-1.3-3.4-1.1-4.2-1.2c-1.4-0.1-2.8-0.3-4.2-0.5
	c-1.5-0.6-2.9-1.4-4.1-2.4c-2.4-1.7-5.1-3.3-7.7-5.2c-1.1-0.8-2.8-2.2-2.6-3.5c0.2-1.3,1.3-2.3,2.6-2.3h0.5c2.2,0,3.8,1.5,5,2.2
	c3.9,2.5,7.4,5.2,13.8,5.5h1c1.3,0,2-0.2,1.9-0.9s-0.6-0.6-1.3-0.6h-1.2h-0.2c-4.2-0.1-7.6-1.9-10.4-3.6c-1.6-0.9-5.8-3.4-3.5-5.9
	c0.8-0.6,1.7-0.8,2.7-0.8c0.2,0,0.5,0,0.7,0c2.7,0.2,4.7,1.8,7.2,2.8c1.2,0.5,2.5,0.9,3.7,1.3c0.9,0.3,1.9,0.5,2.9,0.6
	c0.6,0,0.9-0.2,0.9-0.7c-0.1-0.7-1.5-0.8-3-1.2s-5.8-1.8-6.8-2.9c-0.6-0.6-0.8-1.6-0.6-2.4c0.3-0.8,1.2-1.1,2.3-1.1
	c1.2,0,2.3,0.2,3.4,0.6l4.3,1.3c0.1,0,0.2,0.1,0.3,0.1c0.4,0,0.7-0.3,0.7-0.7c0,0,0,0,0,0c0-0.3-0.2-0.5-0.5-0.6l-4.4-1.4
	c-1.2-0.4-2.5-0.6-3.8-0.7c-2.5,0-3.4,1.3-3.6,2c-0.3,0.8-0.3,1.6,0,2.4c-1-0.4-2-0.6-3-0.7c-0.3,0-0.5,0-0.8,0
	c-1.3-0.1-2.7,0.4-3.7,1.2c-0.8,0.8-1.1,1.9-1,2.9c0,0.2,0.1,0.4,0.2,0.7c-1-0.5-2.1-0.8-3.2-0.8c-0.2,0-0.5,0-0.7,0
	c-2,0.2-3.6,1.6-3.9,3.6c0,1.3,0.5,2.5,1.5,3.3H5.1c-1.2,0-2.3,0.6-3,1.6c-0.8,1.1-1,2.5-0.5,3.8c0.4,1.3,1.8,2.5,3,3.5l0.1,0.1
	l0.9,0.7c2.8,2.5,5.9,4.8,9.2,6.7c2.4,1.1,5,1.9,7.7,2.4l1.7,0.4c0.7,0.2,1.5,0.4,2.2,0.6c1.4,0.4,2.9,0.7,4.3,1
	c-2.1,0.6-3.8,2.1-4.7,4c-1.1,2.3-0.6,4.8,1.2,5.9c0.8,0.4,1.6,0.7,2.5,0.6l0,0c1.7-0.1,3.4-0.5,5.1-1.1c0.5-0.2,1-0.3,1.5-0.4
	c2.6-0.7,5.2-1.2,7.8-1.4c0.8-0.1,1.6-0.1,2.3-0.1c2.2,0,4.3,0.2,6.5,0.6c2.1,0.3,4.2,0.5,6.3,0.6c1.1,0,2.1-0.1,3.1-0.2
	c2.3-0.4,4.6-1,6.7-1.9l0.6-0.2c2.1-0.8,4.2-1.6,6.3-2.5c4.1-1.8,8-4,11.6-6.7l1.3-0.9c0.3-0.2,0.4-0.7,0.1-1
	C88.9,53.2,88.7,53.1,88.4,53.1L88.4,53.1z"/>
<g>
	<path class="st1" d="M135.9,36.5h6.8v8.5c-2,0.6-4,1-6.1,0.9c-2.1,0.1-4.1-0.6-5.6-2.1c-1.4-1.7-2.1-3.8-2-6
		c-0.1-2.2,0.7-4.3,2.2-5.9c1.7-1.5,3.9-2.2,6.1-2.1c0.9,0,1.9,0.1,2.8,0.3c0.8,0.2,1.6,0.4,2.3,0.7l-1.4,3.3
		c-1.2-0.6-2.4-0.9-3.7-0.8c-1.1-0.1-2.2,0.4-2.9,1.2c-0.7,1-1.1,2.2-1,3.5c-0.1,1.2,0.2,2.4,0.9,3.4c0.7,0.8,1.7,1.2,2.7,1.1
		c0.6,0,1.2-0.1,1.7-0.2v-2.5h-2.8L135.9,36.5z"/>
	<path class="st1" d="M154.3,45.7H145V30h9.3v3.4h-5.1v2.5h4.8v3.4h-4.7v3h5.1L154.3,45.7z"/>
	<path class="st1" d="M171.2,45.7h-5.6l-5.7-11.1h-0.1c0.1,1.7,0.2,3.1,0.2,4v7.1h-3.8V30h5.5l5.7,10.9h0.1
		c-0.1-1.6-0.1-2.9-0.1-3.8V30h3.8V45.7z"/>
	<path class="st1" d="M180.6,45.7h-4.2V33.4h-3.8V30h11.9v3.5h-3.8L180.6,45.7z"/>
	<path class="st1" d="M185.8,45.7V30h4.2v12.2h6v3.4L185.8,45.7z"/>
	<path class="st1" d="M207,45.7h-9.3V30h9.3v3.4H202v2.5h4.7v3.4H202v3h5.1L207,45.7z"/>
	<path class="st1" d="M227.1,37.5c0.1,2.2-0.6,4.4-2.2,6.1c-1.7,1.5-3.8,2.3-6.1,2.1h-5.1V30h5.4c2.1-0.1,4.2,0.5,5.8,1.9
		C226.4,33.4,227.2,35.4,227.1,37.5z M222.7,37.6c0.1-1.1-0.2-2.3-0.9-3.2c-0.7-0.7-1.6-1.1-2.6-1H218v8.8h1
		c1.1,0.1,2.1-0.3,2.8-1.1C222.5,40.1,222.8,38.9,222.7,37.6z"/>
	<path class="st1" d="M238.3,45.7H229V30h9.3v3.4h-5.1v2.5h4.8v3.4h-4.7v3h5.1L238.3,45.7z"/>
	<path class="st1" d="M255.2,45.7h-5.6l-5.7-11.1h-0.1c0.1,1.7,0.2,3.1,0.2,4v7.1h-3.8V30h5.5l5.7,10.9h0.1
		c-0.1-1.6-0.1-2.9-0.1-3.8V30h3.8V45.7z"/>
	<path class="st1" d="M264.6,45.7h-4.2V33.4h-3.8V30h11.9v3.5h-3.8L264.6,45.7z"/>
	<path class="st1" d="M279.4,45.7l-0.8-2.9h-5.1l-0.8,2.9h-4.7l5.1-15.8h5.7l5.2,15.8H279.4z M277.8,39.2l-0.7-2.6
		c-0.2-0.6-0.4-1.3-0.6-2.2s-0.4-1.6-0.4-2c-0.1,0.4-0.2,1-0.4,1.8s-0.6,2.5-1.3,5L277.8,39.2z"/>
	<path class="st1" d="M284.9,45.7V30h4.2v12.2h6v3.4L284.9,45.7z"/>
</g>
</svg>
